<svg version="1.1" id="Layer_1" xmlns="http://www.w3.org/2000/svg" xmlns:xlink="http://www.w3.org/1999/xlink" x="0px" y="0px"
	 width="100%" viewBox="0 0 512 512" enable-background="new 0 0 512 512" xml:space="preserve">
<path fill="#0F172A" opacity="1.000000" stroke="none" 
	d="
M244.000000,513.000000 
	C164.019394,513.000000 84.538750,512.975342 5.058308,513.087097 
	C1.763137,513.091736 0.895897,512.603638 0.898357,509.060089 
	C1.014939,341.101135 1.017293,173.142090 0.889659,5.183177 
	C0.886781,1.396266 1.888395,0.915994 5.314878,0.917909 
	C173.107224,1.011682 340.899597,1.011967 508.691925,0.916347 
	C512.136841,0.914384 513.111816,1.421957 513.108948,5.190006 
	C512.982971,172.982300 512.983154,340.774689 513.104065,508.567017 
	C513.106873,512.467041 512.063354,513.092346 508.434998,513.087708 
	C420.456787,512.975403 332.478363,513.000000 244.000000,513.000000 
z"/>
<path fill="#FEFEFE" opacity="1.000000" stroke="none" 
	d="
M283.406891,261.435242 
	C266.642822,287.650909 250.094070,313.573486 233.362701,339.782104 
	C234.851746,340.728607 236.674438,340.269165 238.348495,340.270813 
	C271.838165,340.303833 305.328308,340.373566 338.817047,340.195740 
	C342.952209,340.173767 344.153137,341.197449 344.038727,345.374176 
	C343.737823,356.362549 343.820038,367.366669 344.008331,378.360046 
	C344.064819,381.655975 343.448944,382.932129 339.741791,382.923676 
	C284.758972,382.798462 229.775772,382.823181 174.792740,382.884003 
	C172.359512,382.886688 170.912064,382.317749 169.774536,379.968109 
	C167.026306,374.291443 161.903137,368.920929 161.523483,363.176788 
	C161.138519,357.352142 167.236862,352.374451 170.627090,347.124512 
	C206.722733,291.228851 242.904755,235.388916 279.042023,179.520096 
	C280.002167,178.035706 281.380859,176.742111 281.680939,174.304291 
	C279.802490,174.304291 278.044769,174.304291 276.287048,174.304291 
	C244.130280,174.304276 211.972916,174.211838 179.817429,174.415115 
	C175.546097,174.442108 174.617050,173.251160 174.724487,169.185684 
	C175.019241,158.030228 174.925262,146.860443 174.759720,135.699661 
	C174.715912,132.745819 175.327835,131.745117 178.545715,131.751709 
	C232.195648,131.861755 285.845856,131.843018 339.495972,131.786041 
	C341.756561,131.783630 343.100037,132.439590 344.211060,134.464539 
	C347.243958,139.992279 352.930908,145.372421 352.978821,150.851166 
	C353.024261,156.045197 347.328125,161.335953 344.032959,166.505142 
	C323.915649,198.063309 303.763031,229.598984 283.406891,261.435242 
z"/>
</svg>